<?xml version="1.0" encoding="iso-8859-1"?>
<!-- Generator: Adobe Illustrator 23.0.1, SVG Export Plug-In . SVG Version: 6.00 Build 0)  -->
<svg version="1.1" id="&#x5716;&#x5C64;_1" xmlns="http://www.w3.org/2000/svg" xmlns:xlink="http://www.w3.org/1999/xlink" x="0px"
	 y="0px" viewBox="0 0 231 101" style="enable-background:new 0 0 231 101;" xml:space="preserve">
<g>
	<path style="fill:#FFFFFF;" d="M37.247,32.854c0.404,0.637,0.766,1.488,1.084,2.558c0.317,1.07,0.477,2.183,0.477,3.338
		c0,2.255-0.477,3.858-1.431,4.812c-0.954,0.954-2.241,1.432-3.858,1.432H15.312v9.797h18.988c0.462,0.637,0.852,1.475,1.17,2.514
		c0.317,1.041,0.477,2.14,0.477,3.295c0,2.197-0.477,3.771-1.431,4.726s-2.241,1.431-3.858,1.431H15.485v18.295
		c-0.637,0.173-1.634,0.346-2.991,0.52c-1.359,0.174-2.703,0.26-4.032,0.26c-1.33,0-2.501-0.102-3.511-0.303
		c-1.012-0.202-1.864-0.564-2.558-1.084c-0.693-0.521-1.214-1.242-1.561-2.168c-0.347-0.924-0.52-2.138-0.52-3.641V40.916
		c0-2.484,0.722-4.449,2.167-5.895c1.444-1.445,3.41-2.168,5.896-2.168H37.247z"/>
	<path style="fill:#FFFFFF;" d="M60.222,85.309c-0.637,0.115-1.575,0.273-2.817,0.477c-1.244,0.201-2.501,0.304-3.772,0.304
		c-1.272,0-2.414-0.087-3.424-0.261c-1.012-0.173-1.864-0.52-2.558-1.04c-0.693-0.521-1.229-1.228-1.604-2.124
		c-0.376-0.896-0.563-2.066-0.563-3.512V28.865c0.635-0.115,1.574-0.274,2.818-0.477c1.242-0.202,2.5-0.303,3.771-0.303
		c1.271,0,2.413,0.086,3.425,0.26c1.011,0.173,1.864,0.521,2.558,1.041c0.694,0.52,1.228,1.229,1.604,2.124
		c0.375,0.897,0.563,2.067,0.563,3.512V85.309z"/>
	<path style="fill:#1A1A1A;" d="M69.153,32.575c0-1.85,0.737-3.408,2.211-4.675c1.474-1.266,3.425-1.9,5.853-1.9
		s4.378,0.634,5.853,1.9c1.474,1.267,2.211,2.825,2.211,4.675c0,1.851-0.737,3.41-2.211,4.675c-1.474,1.267-3.425,1.899-5.853,1.899
		s-4.378-0.632-5.853-1.899C69.89,35.985,69.153,34.426,69.153,32.575z"/>
	<path style="fill:#FFFFFF;" d="M84.586,85.309c-0.637,0.115-1.576,0.273-2.818,0.477c-1.244,0.201-2.501,0.304-3.771,0.304
		c-1.272,0-2.414-0.087-3.425-0.261c-1.012-0.173-1.864-0.52-2.558-1.04c-0.694-0.521-1.229-1.228-1.604-2.124
		c-0.376-0.896-0.563-2.066-0.563-3.512V43.865c0.635-0.115,1.574-0.274,2.818-0.478c1.242-0.202,2.5-0.304,3.771-0.304
		c1.271,0,2.413,0.087,3.425,0.26c1.01,0.174,1.864,0.521,2.558,1.041c0.693,0.52,1.228,1.229,1.604,2.124
		c0.375,0.897,0.563,2.067,0.563,3.512V85.309z"/>
	<path style="fill:#FFFFFF;" d="M114.498,41.957c3.294,0,6.286,0.42,8.974,1.258c2.688,0.838,4.956,1.922,6.806,3.251
		c1.155,0.81,2.066,1.706,2.731,2.688c0.664,0.983,0.997,2.255,0.997,3.815v30.346c0,3.062-0.579,5.707-1.734,7.934
		c-1.157,2.224-2.731,4.074-4.726,5.549c-1.994,1.474-4.335,2.557-7.022,3.251c-2.688,0.693-5.564,1.04-8.627,1.04
		c-5.261,0-9.394-0.709-12.398-2.124c-3.006-1.417-4.509-3.714-4.509-6.893c0-1.331,0.274-2.501,0.824-3.512
		c0.549-1.012,1.17-1.777,1.864-2.298c1.676,0.924,3.568,1.705,5.679,2.342c2.109,0.635,4.292,0.953,6.546,0.953
		c3.121,0,5.605-0.52,7.456-1.561c1.85-1.041,2.775-2.717,2.775-5.029V81.58c-2.371,1.041-5.261,1.561-8.67,1.561
		c-2.601,0-5.072-0.391-7.413-1.17c-2.341-0.781-4.394-1.994-6.156-3.643c-1.764-1.646-3.18-3.771-4.249-6.372
		c-1.07-2.601-1.604-5.692-1.604-9.276c0-3.525,0.563-6.59,1.691-9.191c1.127-2.601,2.688-4.754,4.682-6.459
		c1.994-1.704,4.364-2.977,7.11-3.814C108.269,42.377,111.26,41.957,114.498,41.957z M119.874,54.529
		c-0.405-0.23-0.997-0.463-1.777-0.693s-1.749-0.348-2.905-0.348c-2.833,0-4.957,0.795-6.373,2.385
		c-1.417,1.59-2.124,3.857-2.124,6.807c0,3.352,0.707,5.766,2.124,7.238c1.416,1.475,3.222,2.211,5.419,2.211
		c2.37,0,4.249-0.548,5.636-1.646V54.529z"/>
	<path style="fill:#FFFFFF;" d="M184.726,85.309c-0.578,0.174-1.489,0.347-2.731,0.52c-1.244,0.174-2.529,0.261-3.858,0.261
		c-1.272,0-2.414-0.087-3.425-0.261c-1.012-0.173-1.864-0.52-2.558-1.04c-0.693-0.521-1.229-1.228-1.604-2.124
		c-0.376-0.896-0.563-2.066-0.563-3.512V59.904c0-2.369-0.593-4.031-1.777-4.985c-1.186-0.954-2.645-1.431-4.378-1.431
		c-1.157,0-2.254,0.145-3.295,0.434c-1.04,0.29-1.879,0.637-2.514,1.041v30.346c-0.579,0.174-1.489,0.347-2.731,0.52
		c-1.244,0.174-2.529,0.261-3.858,0.261c-1.272,0-2.414-0.087-3.425-0.261c-1.012-0.173-1.864-0.52-2.558-1.04
		c-0.694-0.521-1.229-1.228-1.604-2.124c-0.377-0.896-0.563-2.066-0.563-3.512V28.865c0.635-0.115,1.574-0.274,2.817-0.477
		c1.243-0.202,2.5-0.303,3.772-0.303c1.271,0,2.413,0.086,3.425,0.26c1.01,0.173,1.864,0.521,2.558,1.041
		c0.693,0.52,1.227,1.229,1.604,2.124c0.375,0.897,0.563,2.067,0.563,3.512v8.496c0.75-0.289,1.893-0.62,3.425-0.997
		c1.531-0.375,3.221-0.563,5.072-0.563c5.723,0,10.188,1.431,13.396,4.292c3.208,2.86,4.812,7.124,4.812,12.788V85.309z"/>
	<path style="fill:#FFFFFF;" d="M208.568,70.916c0,1.504,0.477,2.572,1.431,3.207c0.954,0.637,2.297,0.955,4.031,0.955
		c0.867,0,1.763-0.072,2.688-0.217c0.924-0.145,1.734-0.332,2.428-0.564c0.52,0.637,0.967,1.344,1.344,2.125
		c0.375,0.779,0.563,1.72,0.563,2.817c0,2.197-0.824,3.988-2.471,5.376c-1.647,1.387-4.552,2.08-8.714,2.08
		c-5.087,0-9.003-1.156-11.748-3.468c-2.746-2.312-4.118-6.069-4.118-11.271V34.848c0.635-0.174,1.545-0.36,2.731-0.563
		c1.184-0.202,2.441-0.304,3.771-0.304c2.543,0,4.522,0.448,5.939,1.344c1.416,0.896,2.125,2.789,2.125,5.68v5.549h11.358
		c0.347,0.637,0.679,1.43,0.997,2.384c0.317,0.954,0.477,2.009,0.477,3.165c0,2.023-0.449,3.482-1.344,4.379
		c-0.896,0.896-2.096,1.344-3.598,1.344h-7.89V70.916z"/>
	<path style="fill:#1A1A1A;" d="M201,25L201,25c-2.209,0-4-1.791-4-4V4c0-2.209,1.791-4,4-4l0,0c2.209,0,4,1.791,4,4v17
		C205,23.209,203.209,25,201,25z"/>
	<path style="fill:#1A1A1A;" d="M190.426,30.071L190.426,30.071c-1.42,1.692-3.943,1.913-5.635,0.493l-10.725-8.999
		c-1.692-1.42-1.913-3.943-0.493-5.635l0,0c1.42-1.692,3.943-1.913,5.635-0.493l10.725,8.999
		C191.626,25.855,191.846,28.378,190.426,30.071z"/>
	<path style="fill:#1A1A1A;" d="M211.574,30.071L211.574,30.071c-1.42-1.692-1.199-4.215,0.493-5.635l10.725-8.999
		c1.692-1.42,4.215-1.199,5.635,0.493l0,0c1.42,1.692,1.199,4.215-0.493,5.635l-10.725,8.999
		C215.517,31.984,212.994,31.763,211.574,30.071z"/>
</g>
</svg>
